<svg width="25" height="25" viewBox="0 0 25 25" fill="none" xmlns="http://www.w3.org/2000/svg">
<path d="M17.8848 0.384644C18.2418 0.384644 18.5842 0.52647 18.8366 0.778923C19.0891 1.03138 19.2309 1.37378 19.2309 1.7308V3.07695H21.9232C22.6373 3.07695 23.3221 3.3606 23.827 3.86551C24.3319 4.37042 24.6155 5.05521 24.6155 5.76926V21.9231C24.6155 22.6371 24.3319 23.3219 23.827 23.8269C23.3221 24.3318 22.6373 24.6154 21.9232 24.6154H3.07707C2.36303 24.6154 1.67823 24.3318 1.17332 23.8269C0.668419 23.3219 0.384766 22.6371 0.384766 21.9231V5.76926C0.384766 5.05521 0.668419 4.37042 1.17332 3.86551C1.67823 3.3606 2.36303 3.07695 3.07707 3.07695H5.76938V1.7308C5.76938 1.37378 5.91121 1.03138 6.16366 0.778923C6.41611 0.52647 6.75851 0.384644 7.11553 0.384644C7.47256 0.384644 7.81496 0.52647 8.06741 0.778923C8.31986 1.03138 8.46169 1.37378 8.46169 1.7308V3.07695H16.5386V1.7308C16.5386 1.37378 16.6804 1.03138 16.9329 0.778923C17.1853 0.52647 17.5277 0.384644 17.8848 0.384644ZM21.9232 5.76926H3.07707V21.9231H21.9232V5.76926ZM16.3017 8.97176C16.5556 8.72655 16.8956 8.59086 17.2486 8.59393C17.6015 8.597 17.9392 8.73857 18.1888 8.98816C18.4383 9.23774 18.5799 9.57538 18.583 9.92833C18.586 10.2813 18.4504 10.6213 18.2052 10.8752L11.5525 17.5293C11.4262 17.6556 11.2763 17.7559 11.1112 17.8243C10.9462 17.8927 10.7693 17.9279 10.5906 17.9279C10.412 17.9279 10.2351 17.8927 10.07 17.8243C9.90501 17.7559 9.75507 17.6556 9.6288 17.5293L6.78303 14.6808C6.53782 14.4269 6.40214 14.0869 6.4052 13.7339C6.40827 13.381 6.54985 13.0433 6.79943 12.7937C7.04902 12.5441 7.38665 12.4026 7.73961 12.3995C8.09257 12.3964 8.43261 12.5321 8.6865 12.7773L10.5913 14.6808L16.3017 8.97176Z" fill="#1565D8"/>
</svg>
