<svg width="27" height="27" viewBox="0 0 27 27" fill="none" xmlns="http://www.w3.org/2000/svg">
<path d="M25.6153 25.6154L19.769 19.7691M19.769 19.7691C20.769 18.7691 21.5623 17.5818 22.1035 16.2752C22.6447 14.9686 22.9233 13.5682 22.9233 12.1539C22.9233 10.7396 22.6447 9.33921 22.1035 8.0326C21.5623 6.72598 20.769 5.53876 19.769 4.53872C18.7689 3.53867 17.5817 2.7454 16.2751 2.20418C14.9685 1.66296 13.5681 1.3844 12.1538 1.3844C10.7395 1.3844 9.33909 1.66296 8.03247 2.20418C6.72586 2.7454 5.53863 3.53867 4.53859 4.53872C2.51892 6.55839 1.38428 9.29766 1.38428 12.1539C1.38428 15.0102 2.51892 17.7494 4.53859 19.7691C6.55827 21.7888 9.29753 22.9234 12.1538 22.9234C15.01 22.9234 17.7493 21.7888 19.769 19.7691Z" stroke="#1565D8" stroke-width="2.69231" stroke-linecap="round" stroke-linejoin="round"/>
</svg>
