<svg width="19" height="22" viewBox="0 0 19 22" fill="none" xmlns="http://www.w3.org/2000/svg">
<path d="M5.8002 10.2C4.73933 10.2 3.72191 9.77855 2.97177 9.0284C2.22162 8.27826 1.8002 7.26084 1.8002 6.19998V2.99998C1.8002 2.7878 1.88448 2.58432 2.03451 2.43429C2.18454 2.28426 2.38802 2.19998 2.6002 2.19998H3.4002C3.61237 2.19998 3.81585 2.11569 3.96588 1.96566C4.11591 1.81563 4.2002 1.61215 4.2002 1.39998C4.2002 1.1878 4.11591 0.984319 3.96588 0.83429C3.81585 0.684261 3.61237 0.599976 3.4002 0.599976H2.6002C1.96368 0.599976 1.35323 0.852832 0.903139 1.30292C0.453052 1.75301 0.200195 2.36346 0.200195 2.99998V6.19998C0.201224 7.10377 0.421613 7.9938 0.842435 8.79364C1.26326 9.59348 1.87194 10.2792 2.6162 10.792C3.33198 11.4218 3.91237 12.1904 4.32217 13.0513C4.73197 13.9122 4.96264 14.8473 5.0002 15.8C5.0002 17.2852 5.59019 18.7096 6.6404 19.7598C7.6906 20.81 9.11498 21.4 10.6002 21.4C12.0854 21.4 13.5098 20.81 14.56 19.7598C15.6102 18.7096 16.2002 17.2852 16.2002 15.8V14.888C16.9543 14.6933 17.6115 14.2302 18.0487 13.5856C18.4858 12.9409 18.6728 12.159 18.5747 11.3864C18.4766 10.6137 18.1 9.90339 17.5156 9.38852C16.9312 8.87365 16.1791 8.58959 15.4002 8.58959C14.6213 8.58959 13.8692 8.87365 13.2848 9.38852C12.7004 9.90339 12.3238 10.6137 12.2257 11.3864C12.1276 12.159 12.3146 12.9409 12.7517 13.5856C13.1888 14.2302 13.8461 14.6933 14.6002 14.888V15.8C14.6002 16.8608 14.1788 17.8783 13.4286 18.6284C12.6785 19.3785 11.6611 19.8 10.6002 19.8C9.53933 19.8 8.52191 19.3785 7.77177 18.6284C7.02162 17.8783 6.6002 16.8608 6.6002 15.8C6.63977 14.8461 6.87294 13.9103 7.28552 13.0493C7.69811 12.1884 8.28149 11.4204 9.0002 10.792C9.7415 10.2774 10.3471 9.59092 10.765 8.79119C11.183 7.99146 11.401 7.10235 11.4002 6.19998V2.99998C11.4002 2.36346 11.1473 1.75301 10.6973 1.30292C10.2472 0.852832 9.63671 0.599976 9.0002 0.599976H8.2002C7.98802 0.599976 7.78454 0.684261 7.63451 0.83429C7.48448 0.984319 7.4002 1.1878 7.4002 1.39998C7.4002 1.61215 7.48448 1.81563 7.63451 1.96566C7.78454 2.11569 7.98802 2.19998 8.2002 2.19998H9.0002C9.21237 2.19998 9.41585 2.28426 9.56588 2.43429C9.71591 2.58432 9.8002 2.7878 9.8002 2.99998V6.19998C9.8002 6.72526 9.69673 7.24541 9.49571 7.73071C9.29469 8.21601 9.00006 8.65697 8.62862 9.0284C8.25719 9.39984 7.81623 9.69448 7.33093 9.89549C6.84563 10.0965 6.32548 10.2 5.8002 10.2ZM15.4002 13.4C14.9758 13.4 14.5689 13.2314 14.2688 12.9313C13.9688 12.6313 13.8002 12.2243 13.8002 11.8C13.8002 11.3756 13.9688 10.9687 14.2688 10.6686C14.5689 10.3685 14.9758 10.2 15.4002 10.2C15.8245 10.2 16.2315 10.3685 16.5316 10.6686C16.8316 10.9687 17.0002 11.3756 17.0002 11.8C17.0002 12.2243 16.8316 12.6313 16.5316 12.9313C16.2315 13.2314 15.8245 13.4 15.4002 13.4Z" fill="#00BFA6"/>
</svg>
