<svg width="14" height="14" viewBox="0 0 14 14" fill="none" xmlns="http://www.w3.org/2000/svg">
<path d="M6.30016 7.95336L5.10283 6.76003C5.0406 6.69781 4.96483 6.66447 4.87549 6.66003C4.78571 6.65559 4.70416 6.69025 4.63083 6.76403C4.55971 6.83514 4.52416 6.91381 4.52416 7.00003C4.52416 7.08625 4.55971 7.16492 4.63083 7.23603L5.92283 8.52803C6.03083 8.63559 6.1566 8.68936 6.30016 8.68936C6.44371 8.68936 6.56949 8.63559 6.67749 8.52803L9.36949 5.83603C9.43438 5.77114 9.46838 5.6947 9.47149 5.6067C9.4746 5.51825 9.4406 5.43736 9.36949 5.36403C9.29616 5.2907 9.21683 5.25336 9.13149 5.25203C9.04616 5.2507 8.96705 5.2867 8.89416 5.36003L6.30016 7.95336ZM4.78016 12.744L3.90283 11.2774L2.24883 10.928C2.11638 10.9036 2.01083 10.8325 1.93216 10.7147C1.85349 10.5974 1.82105 10.4725 1.83483 10.34L1.99283 8.63603L0.870825 7.35603C0.776603 7.25959 0.729492 7.14092 0.729492 7.00003C0.729492 6.85914 0.776603 6.74047 0.870825 6.64403L1.99283 5.36403L1.83483 3.6607C1.82149 3.52781 1.85394 3.4027 1.93216 3.28536C2.01083 3.16803 2.11638 3.09692 2.24883 3.07203L3.90216 2.72336L4.77949 1.2567C4.85149 1.13759 4.94816 1.05536 5.06949 1.01003C5.19083 0.964252 5.31638 0.970252 5.44616 1.02803L7.00016 1.6847L8.55349 1.02803C8.68371 0.970252 8.80949 0.964252 8.93083 1.01003C9.05216 1.05536 9.14883 1.13759 9.22083 1.2567L10.0975 2.72336L11.7515 3.07203C11.8839 3.09692 11.9895 3.16803 12.0682 3.28536C12.1468 3.4027 12.1793 3.52781 12.1655 3.6607L12.0082 5.36403L13.1295 6.64403C13.2237 6.74047 13.2708 6.85914 13.2708 7.00003C13.2708 7.14092 13.2237 7.25981 13.1295 7.3567L12.0082 8.63603L12.1655 10.3394C12.1788 10.4723 12.1464 10.5974 12.0682 10.7147C11.9895 10.8325 11.8839 10.9036 11.7515 10.928L10.0982 11.2774L9.22083 12.744C9.14883 12.8627 9.05216 12.9449 8.93083 12.9907C8.80949 13.0365 8.68394 13.0303 8.55416 12.972L7.00016 12.3154L5.44683 12.972C5.3166 13.0298 5.19083 13.0358 5.06949 12.99C4.94816 12.9447 4.85149 12.8625 4.77949 12.7434M5.30016 12.3L7.00016 11.5927L8.70816 12.3L9.66683 10.7L11.5002 10.2927L11.3335 8.40003L12.5668 7.00003L11.3335 5.5927L11.5002 3.70003L9.66683 3.30003L8.70016 1.70003L7.00016 2.40803L5.29283 1.70003L4.33349 3.30003L2.50016 3.70003L2.66683 5.5927L1.43349 7.00003L2.66683 8.40003L2.50016 10.3L4.33349 10.7L5.30016 12.3Z" fill="#00BFA6"/>
</svg>
