<svg width="21" height="22" viewBox="0 0 21 22" fill="none" xmlns="http://www.w3.org/2000/svg">
<path fill-rule="evenodd" clip-rule="evenodd" d="M2.35564 5.96004C2.37364 6.87084 1.87804 8.10204 1.23364 8.74524C0.635683 9.34376 0.299805 10.1552 0.299805 11.0012C0.299805 11.8473 0.635683 12.6587 1.23364 13.2572C1.86964 13.8908 2.33764 14.99 2.35564 15.8876C2.37244 16.682 2.68324 17.4716 3.28924 18.0764C3.84833 18.6367 4.59626 18.9683 5.38684 19.0064C6.33604 19.0544 7.57924 19.6064 8.25124 20.2784C8.84972 20.876 9.66089 21.2117 10.5066 21.2117C11.3524 21.2117 12.1636 20.876 12.762 20.2784C13.434 19.6064 14.6772 19.0544 15.6264 19.0064C16.417 18.9683 17.1649 18.6367 17.724 18.0764C18.3069 17.4944 18.6412 16.7088 18.6564 15.8852C18.6744 14.99 19.1364 13.898 19.7712 13.2644C20.3715 12.6661 20.7094 11.8538 20.7108 11.0063C20.7121 10.1588 20.3768 9.34548 19.7784 8.74524C19.1352 8.10324 18.6384 6.87084 18.6576 5.96124C18.6667 5.53177 18.5886 5.10493 18.4282 4.70647C18.2677 4.30801 18.0282 3.94619 17.724 3.64284C17.4088 3.3268 17.0306 3.08067 16.614 2.92044C16.1974 2.76021 15.7518 2.68947 15.306 2.71284C14.4492 2.75604 13.368 2.34084 12.762 1.73364C12.1635 1.13568 11.3521 0.799805 10.506 0.799805C9.66 0.799805 8.84856 1.13568 8.25004 1.73364C7.64524 2.33964 6.56284 2.75604 5.70604 2.71284C5.2605 2.68964 4.81506 2.76046 4.39868 2.92069C3.9823 3.08091 3.6043 3.32696 3.28924 3.64284C2.98525 3.94605 2.74581 4.30767 2.58536 4.70592C2.42491 5.10416 2.34676 5.53078 2.35564 5.96004ZM14.1492 6.95124C14.2871 7.02772 14.4085 7.13061 14.5065 7.25402C14.6046 7.37744 14.6774 7.51897 14.7207 7.67053C14.7641 7.82208 14.7772 7.98069 14.7592 8.1373C14.7412 8.2939 14.6926 8.44544 14.616 8.58324L11.2944 14.5616C11.2084 14.7245 11.086 14.8653 10.9368 14.9732C10.72 15.1301 10.457 15.21 10.1895 15.2002C9.92211 15.1904 9.66561 15.0915 9.46084 14.9192L6.15004 12.2708C6.02696 12.1723 5.92449 12.0506 5.84847 11.9125C5.77246 11.7744 5.72439 11.6227 5.70701 11.466C5.68962 11.3093 5.70327 11.1508 5.74716 10.9994C5.79106 10.848 5.86434 10.7067 5.96284 10.5836C6.06133 10.4606 6.1831 10.3581 6.32119 10.2821C6.45928 10.2061 6.61099 10.158 6.76767 10.1406C6.92434 10.1232 7.0829 10.1369 7.23429 10.1808C7.38569 10.2247 7.52696 10.2979 7.65004 10.3964L9.87364 12.176L12.5172 7.41684C12.5938 7.2791 12.6968 7.1578 12.8202 7.05986C12.9437 6.96192 13.0853 6.88926 13.2368 6.84602C13.3883 6.80279 13.5469 6.78982 13.7035 6.80788C13.86 6.82593 14.0115 6.87464 14.1492 6.95124Z" fill="#009721"/>
</svg>
